:SAMPLES-PER-SECOND 30
:FULLY-SPECIFIED
:DEGREES
81
root  23.0689 38.3215 -3.50435 -125.837 -85.8028 128.265
RightUpLeg  10.1988 -10.3102 -8.99252
RightLeg  22.9804 0.844536 -0.0303685
RightFoot  -19.7712 0.63683 10.8916
RightToes  -1.74624e-010 0 -3.6325e-017
Spine  7.95325 2.73788 7.25984
Spine1  5.78483 6.26494 -12.9403
HEad  -20.2114 -1.65347 0.78359
LeftShoulder1  9.3276 -13.2815 -48.5131
LeftArm  -15.4109 39.3737 -22.7091
LeftForeArm  33.1579 -58.287 -15.2754
LeftHand  -0.244104 0.0205437 5.32207
RightShoulder  6.50439 10.1392 41.4489
RightArm  0.56089 0.533082 28.2934
RightForeArm  7.66312 64.8368 24.3208
RightHand  -1.16753 1.59615 -19.4288
LeftUpLeg  -29.6139 9.03887 -8.33017
LeftLeg  27.2707 5.21389 3.26227
LeftFoot  -5.27242 0.0328622 0.0566597
LeftToes  -6.82154e-011 1.37952e-011 -1.79748e-011
82
root  21.1661 37.9742 -3.31799 -131.666 -84.475 133.828
RightUpLeg  5.54086 -5.53585 -9.74556
RightLeg  36.0999 -0.95292 -1.02134
RightFoot  -12.2161 0.0564993 14.9816
RightToes  -1.74624e-010 0 -3.6325e-017
Spine  9.16725 3.01672 5.69551
Spine1  5.10166 6.61858 -13.441
HEad  -20.8332 -1.78639 1.64667
LeftShoulder1  9.29928 -13.2463 -48.4669
LeftArm  -18.2301 39.6542 -23.2193
LeftForeArm  36.9421 -64.4893 -20.084
LeftHand  -0.244104 0.0205437 5.32207
RightShoulder  6.68619 10.291 42.1891
RightArm  2.7283 -5.11881 28.5202
RightForeArm  8.79286 65.2452 24.76
RightHand  -1.35063 2.56699 -19.7557
LeftUpLeg  -28.5305 7.5157 -9.17019
LeftLeg  32.0913 7.51138 5.41083
LeftFoot  -8.46911 -0.0219663 2.99416
LeftToes  -6.82154e-011 1.37952e-011 -1.79748e-011
83
root  19.3358 37.5513 -3.16434 -130.475 -82.8913 131.599
RightUpLeg  -1.59081 -1.73407 -11.2198
RightLeg  52.2292 -1.31729 -2.1455
RightFoot  0.524735 -1.26626 12.6022
RightToes  -1.74624e-010 0 -3.6325e-017
Spine  11.5419 2.86942 2.41873
Spine1  4.42758 6.0392 -12.4134
HEad  -22.6737 -1.20728 1.69095
LeftShoulder1  9.30317 -13.1743 -48.6978
LeftArm  -20.4354 37.4138 -23.7464
LeftForeArm  42.0038 -68.9513 -25.2277
LeftHand  -0.244104 0.0205437 5.32207
RightShoulder  6.98485 10.6703 42.9402
RightArm  4.83522 -10.0443 28.9657
RightForeArm  8.273 63.3508 22.5187
RightHand  -1.5803 3.61874 -20.4175
LeftUpLeg  -26.6438 6.3432 -10.5602
LeftLeg  37.0581 9.19986 7.75125
LeftFoot  -13.3149 0.143644 4.09607
LeftToes  -6.82154e-011 1.37952e-011 -1.79748e-011
84
root  17.6419 37.0426 -3.07579 -124.52 -81.4995 124.518
RightUpLeg  -9.6567 0.811634 -12.9373
RightLeg  66.7438 -0.776323 -2.68971
RightFoot  9.67117 -1.3739 7.63461
RightToes  -1.74624e-010 0 -3.6325e-017
Spine  13.8849 2.57678 -2.26034
Spine1  4.50581 4.66971 -10.0389
HEad  -25.4955 -0.245282 0.911082
LeftShoulder1  9.43272 -13.0902 -49.6262
LeftArm  -20.1243 32.2904 -22.7483
LeftForeArm  48.3493 -72.2643 -30.7249
LeftHand  -0.244104 0.0205437 5.32207
RightShoulder  7.29267 10.97 43.9617
RightArm  6.10841 -14.7687 28.7558
RightForeArm  7.5529 61.3023 20.4149
RightHand  -1.90082 4.77353 -21.7315
LeftUpLeg  -24.6044 6.23778 -12.3602
LeftLeg  41.514 9.3671 9.15393
LeftFoot  -18.4508 0.311152 3.2761
LeftToes  -6.82154e-011 1.37952e-011 -1.79748e-011
85
root  15.8575 36.8287 -2.98442 -116.758 -81.1788 116.42
RightUpLeg  -17.3719 1.12239 -13.8404
RightLeg  76.4856 -0.533586 -3.9732
RightFoot  11.022 -0.785102 4.28912
RightToes  -1.74624e-010 0 -3.6325e-017
Spine  14.8257 1.90368 -6.03018
Spine1  4.85504 2.78015 -6.87152
HEad  -27.9827 0.74933 -0.0966162
LeftShoulder1  9.59168 -13.025 -50.6538
LeftArm  -16.9379 25.7509 -20.4057
LeftForeArm  56.9769 -75.3988 -38.8111
LeftHand  -0.244104 0.0205437 5.32207
RightShoulder  7.40858 10.8751 45.0048
RightArm  6.56468 -20.9604 27.5097
RightForeArm  7.14363 61.9851 21.1706
RightHand  -2.27147 5.75037 -23.6458
LeftUpLeg  -21.6946 6.54756 -13.3877
LeftLeg  42.9582 8.5895 8.88608
LeftFoot  -22.196 0.338829 2.13965
LeftToes  -6.82154e-011 1.37952e-011 -1.79748e-011
86
root  13.8694 37.0731 -2.81979 -109.252 -82.2044 109.392
RightUpLeg  -23.9242 -0.244686 -13.0763
RightLeg  80.074 -0.590032 -6.1264
RightFoot  7.71902 -0.44331 2.97815
RightToes  -1.74624e-010 0 -3.6325e-017
Spine  14.4208 0.577809 -7.28371
Spine1  4.84709 0.667916 -3.98576
HEad  -29.0621 2.02252 -0.835332
LeftShoulder1  9.51693 -12.9214 -50.5746
LeftArm  -12.8908 20.409 -18.7729
LeftForeArm  74.8291 -78.8891 -56.3305
LeftHand  -0.244104 0.0205437 5.32207
RightShoulder  7.13331 10.3556 44.9452
RightArm  7.06223 -29.0517 25.9868
RightForeArm  8.72445 66.265 26.3282
RightHand  -2.45826 5.92408 -25.1506
LeftUpLeg  -17.4456 6.33892 -12.9306
LeftLeg  40.7309 8.10633 7.80886
LeftFoot  -24.2136 0.34727 1.78009
LeftToes  -6.82154e-011 1.37952e-011 -1.79748e-011
87
root  11.7213 37.6815 -2.58827 -109.32 -84.3637 109.951
RightUpLeg  -28.3059 -1.61893 -10.2671
RightLeg  77.6171 -1.31789 -8.46954
RightFoot  3.94686 -0.378538 3.0187
RightToes  -1.74624e-010 0 -3.6325e-017
Spine  13.5684 -1.11869 -5.80865
Spine1  4.45628 -1.31188 -2.17539
HEad  -28.5883 4.02863 -1.67635
LeftShoulder1  9.13331 -12.701 -49.2015
LeftArm  -9.94407 17.9433 -19.2378
LeftForeArm  110.519 -80.7787 -91.1826
LeftHand  -0.244104 0.0205437 5.32207
RightShoulder  6.49338 9.65338 42.9981
RightArm  8.08302 -37.4204 25.0166
RightForeArm  17.1079 72.0876 37.2649
RightHand  -2.2428 4.99428 -24.9597
LeftUpLeg  -11.5178 5.9955 -10.7925
LeftLeg  35.4387 8.22903 6.61133
LeftFoot  -24.7891 0.359374 1.80062
LeftToes  -6.82154e-011 1.37952e-011 -1.79748e-011
88
root  9.41997 38.5791 -2.3439 -136.714 -86.7084 137.543
RightUpLeg  -29.9243 -2.43545 -5.63307
RightLeg  69.6397 -3.36547 -10.6859
RightFoot  1.28516 -0.318327 2.95581
RightToes  -1.74624e-010 0 -3.6325e-017
Spine  12.471 -2.68603 -2.42805
Spine1  3.88849 -2.88701 -0.894443
HEad  -26.7556 6.6772 -3.17307
LeftShoulder1  8.64153 -12.361 -47.5371
LeftArm  -8.07669 18.0414 -21.3011
LeftForeArm  143.595 -79.0317 -123.816
LeftHand  -0.244104 0.0205437 5.32207
RightShoulder  5.78776 9.12683 39.704
RightArm  8.68083 -44.4997 24.8326
RightForeArm  36.8573 76.8351 55.9659
RightHand  -1.65607 3.05513 -22.6692
LeftUpLeg  -4.08961 7.0321 -7.02125
LeftLeg  27.6604 7.7705 4.79311
LeftFoot  -22.9534 0.248007 1.06354
LeftToes  -6.82154e-011 1.37952e-011 -1.79748e-011
89
root  6.99621 39.5609 -2.17138 169.471 -86.7325 -168.172
RightUpLeg  -29.2905 -3.24564 -0.884969
RightLeg  57.0512 -6.03983 -10.4771
RightFoot  -1.09584 -0.295629 3.22049
RightToes  -1.74624e-010 0 -3.6325e-017
Spine  10.6746 -3.68575 0.545043
Spine1  3.3111 -3.99231 0.671501
HEad  -23.7822 9.25705 -4.85325
LeftShoulder1  8.21208 -11.9792 -46.2592
LeftArm  -6.14168 19.1021 -23.7115
LeftForeArm  157.658 -76.2568 -138.706
LeftHand  -0.244104 0.0205437 5.32207
RightShoulder  5.30675 9.02511 36.3755
RightArm  7.53785 -50.224 25.5137
RightForeArm  66.5912 79.0801 83.0745
RightHand  -1.04138 0.753645 -19.689
LeftUpLeg  2.86039 10.1759 -2.74371
LeftLeg  19.833 5.36665 2.36397
LeftFoot  -17.2932 0.0553223 -1.20712
LeftToes  -6.82154e-011 1.37952e-011 -1.79748e-011
90
root  4.5512 40.3309 -2.09658 156.493 -85.4511 -154.435
RightUpLeg  -27.4031 -4.38894 2.18332
RightLeg  42.0533 -6.4791 -6.61609
RightFoot  -3.24928 -0.301658 3.94073
RightToes  -1.74624e-010 0 -3.6325e-017
Spine  8.49224 -4.10344 1.52363
Spine1  2.92745 -4.68941 2.28581
HEad  -20.4975 11.018 -5.68283
LeftShoulder1  7.87405 -11.6817 -45.1874
LeftArm  -3.77856 19.535 -25.7008
LeftForeArm  163.491 -74.0798 -145.366
LeftHand  -0.244104 0.0205437 5.32207
RightShoulder  5.10757 9.2264 34.1725
RightArm  4.39309 -54.5111 27.1129
RightForeArm  94.3168 78.5226 110.043
RightHand  -0.680953 -0.95254 -17.8048
LeftUpLeg  7.03092 13.523 0.287424
LeftLeg  16.3093 2.32338 0.592124
LeftFoot  -8.86578 0.149212 -4.29322
LeftToes  -6.82154e-011 1.37952e-011 -1.79748e-011
91
root  2.20683 40.723 -2.05206 159.258 -85.2374 -157.09
RightUpLeg  -24.7025 -5.86783 3.78871
RightLeg  28.3286 -3.56841 -2.36551
RightFoot  -5.47207 -0.290078 4.99457
RightToes  -1.74624e-010 0 -3.6325e-017
Spine  7.19399 -4.28836 1.58191
Spine1  3.19882 -5.04765 3.19502
HEad  -18.2768 11.6861 -5.68727
LeftShoulder1  7.68917 -11.6115 -44.2949
LeftArm  -1.65777 18.5537 -26.954
LeftForeArm  168.208 -72.1893 -149.773
LeftHand  -0.244104 0.0205437 5.32207
RightShoulder  5.0456 9.31877 33.4054
RightArm  -0.204039 -56.2032 29.9211
RightForeArm  109.878 76.5666 126.691
RightHand  -0.515751 -1.87408 -16.8866
LeftUpLeg  8.12334 14.7537 1.32885
LeftLeg  19.2956 0.671959 0.584434
LeftFoot  -1.65714 0.552187 -6.51554
LeftToes  -6.82154e-011 1.37952e-011 -1.79748e-011
92
root  -0.00313963 40.6644 -1.98765 156.472 -85.4203 -155.355
RightUpLeg  -21.4549 -7.41032 5.07246
RightLeg  19.0966 -0.520245 -0.0534947
RightFoot  -8.07228 -0.243435 6.54437
RightToes  -1.74624e-010 0 -3.6325e-017
Spine  7.32535 -4.38565 2.47174
Spine1  4.2822 -5.07035 3.30369
HEad  -17.4591 11.4013 -5.82453
LeftShoulder1  7.75609 -11.8846 -43.867
LeftArm  -0.191104 16.4393 -27.4716
LeftForeArm  171.838 -70.3425 -153.158
LeftHand  -0.244104 0.0205437 5.32207
RightShoulder  4.95178 9.1458 33.2027
RightArm  -5.06259 -54.949 34.0588
RightForeArm  118.378 74.7487 135.293
RightHand  -0.316175 -3.08845 -15.3826
LeftUpLeg  7.31145 11.2335 1.32311
LeftLeg  28.0585 2.674 1.92922
LeftFoot  0.839263 0.767143 -7.25891
LeftToes  -6.82154e-011 1.37952e-011 -1.79748e-011
93
root  -2.14302 40.1761 -1.93407 144.746 -85.5126 -145.187
RightUpLeg  -18.8242 -7.88131 6.2143
RightLeg  16.2711 -0.782335 1.07912
RightFoot  -9.31207 -0.170777 6.15693
RightToes  -1.74624e-010 0 -3.6325e-017
Spine  8.14069 -4.28775 4.22408
Spine1  5.32551 -4.72778 3.20227
HEad  -16.9087 10.3754 -6.21257
LeftShoulder1  7.94791 -12.3419 -43.6453
LeftArm  0.915205 14.0037 -27.9665
LeftForeArm  173.595 -68.6753 -155.543
LeftHand  -0.244104 0.0205437 5.32207
RightShoulder  4.86203 9.03577 32.8355
RightArm  -8.12556 -52.1937 37.8416
RightForeArm  126.377 72.9351 141.581
RightHand  -0.028482 -5.30023 -12.9501
LeftUpLeg  5.2832 7.26154 1.86189
LeftLeg  40.619 4.18068 4.21887
LeftFoot  -0.389358 0.677207 -7.02764
LeftToes  -6.82154e-011 1.37952e-011 -1.79748e-011
94
root  -4.23673 39.4142 -1.91369 129.404 -85.2122 -131.086
RightUpLeg  -18.3161 -9.52744 8.59745
RightLeg  20.273 -0.919225 0.520752
RightFoot  -8.5818 -0.0793536 1.22599
RightToes  -1.74624e-010 0 -3.6325e-017
Spine  9.17288 -4.02 6.38053
Spine1  5.36632 -4.10059 3.27175
HEad  -16.2386 9.05994 -6.17822
LeftShoulder1  7.97051 -12.4758 -43.3875
LeftArm  1.48829 11.6454 -29.1973
LeftForeArm  175.398 -67.2874 -157.317
LeftHand  -0.244104 0.0205437 5.32207
RightShoulder  5.02883 9.27265 33.4108
RightArm  -7.4427 -48.4639 37.7689
RightForeArm  133.917 70.3324 147.89
RightHand  0.174609 -7.54149 -10.7692
LeftUpLeg  1.8259 4.064 3.28183
LeftLeg  54.2814 4.21218 6.74836
LeftFoot  -1.96382 0.524885 -6.25487
LeftToes  -6.82154e-011 1.37952e-011 -1.79748e-011
95
root  -6.25998 38.5417 -1.89213 117.579 -84.317 -120.158
RightUpLeg  -19.3061 -9.14306 10.9892
RightLeg  28.8044 -2.26829 -1.77081
RightFoot  -9.04842 0.0368091 -5.82678
RightToes  -1.74624e-010 0 -3.6325e-017
Spine  10.626 -3.82696 8.89313
Spine1  4.75955 -3.43739 3.27303
HEad  -16.7691 8.20389 -5.99011
LeftShoulder1  7.82205 -12.0095 -43.8921
LeftArm  0.518966 9.77322 -30.6926
LeftForeArm  177.703 -66.3664 -158.511
LeftHand  -0.244104 0.0205437 5.32207
RightShoulder  5.58884 9.66119 36.4503
RightArm  -3.3417 -41.2799 32.6282
RightForeArm  137.6 67.5772 152.491
RightHand  0.260985 -8.89911 -9.67921
LeftUpLeg  -2.936 1.52697 5.39682
LeftLeg  66.8246 3.25931 9.0545
LeftFoot  -2.92379 0.38288 -4.95852
LeftToes  -6.82154e-011 1.37952e-011 -1.79748e-011
